<svg width="27" height="26" viewBox="0 0 27 26" fill="none" xmlns="http://www.w3.org/2000/svg">
<circle cx="13.4247" cy="13.1008" r="12.0458" stroke="#FF5757" stroke-width="1.5"/>
<path d="M14.353 19.2351C14.1031 19.4851 13.7936 19.6101 13.4248 19.6101C13.0567 19.611 12.7477 19.4864 12.4978 19.2364C12.2478 18.9864 12.1228 18.677 12.1228 18.3081C12.1219 17.9401 12.2465 17.6311 12.4965 17.3811C12.7464 17.1312 13.0559 17.0062 13.4248 17.0062C13.7928 17.0053 14.1018 17.1299 14.3517 17.3798C14.6017 17.6298 14.7267 17.9392 14.7267 18.3081C14.7276 18.6762 14.603 18.9851 14.353 19.2351Z" fill="#FF5757"/>
<path d="M14.353 14.0273C14.1031 14.2773 13.7936 14.4023 13.4248 14.4023C13.0567 14.4031 12.7477 14.2786 12.4978 14.0286C12.2478 13.7786 12.1228 13.4692 12.1228 13.1003V7.89253C12.1219 7.52451 12.2465 7.21552 12.4965 6.96554C12.7464 6.71557 13.0559 6.59058 13.4248 6.59058C13.7928 6.58971 14.1018 6.71427 14.3517 6.96424C14.6017 7.21421 14.7267 7.52364 14.7267 7.89253V13.1003C14.7276 13.4683 14.603 13.7773 14.353 14.0273Z" fill="#FF5757"/>
</svg>
