<svg width="62" height="57" viewBox="0 0 62 57" fill="none" xmlns="http://www.w3.org/2000/svg">
<path fill-rule="evenodd" clip-rule="evenodd" d="M61.893 28.9465V17.3555C61.893 17.3149 61.8929 17.2744 61.8926 17.2339C61.8892 16.3301 61.8127 15.428 61.6638 14.5364L61.6592 14.5638C61.0831 11.1501 59.4596 7.97312 56.9793 5.49281C53.8331 2.34663 49.566 0.579121 45.1166 0.579121H34.3137C34.3645 0.579198 34.4153 0.579506 34.466 0.580045H17.3337C15.1157 0.556519 12.915 0.973085 10.859 1.80564C8.80306 2.63819 6.93258 3.8702 5.35585 5.43038C3.77913 6.99056 2.52745 8.84794 1.67325 10.895C0.819057 12.9421 0.379298 15.1383 0.379422 17.3564L0.379414 39.7301C0.377997 40.6651 0.454521 41.5987 0.608191 42.521L0.611229 42.5031C0.821988 43.7577 1.17526 44.9872 1.66616 46.1672C2.51234 48.2014 3.75088 50.0489 5.31107 51.6044C6.87127 53.1599 8.72256 54.3928 10.7592 55.2328C12.7959 56.0728 14.9781 56.5034 17.1812 56.5001H27.6821C27.7826 56.5019 27.8832 56.5028 27.9839 56.5028H45.1162C49.5635 56.4961 53.8267 54.7264 56.9714 51.5817C59.4565 49.0966 61.0829 45.9131 61.6592 42.4922L61.6641 42.521C61.818 41.597 61.8946 40.6617 61.8929 39.725V28.9959C61.8929 28.9794 61.893 28.9629 61.893 28.9465Z" fill="#3BBCA0"/>
<path d="M51.038 33.469V19.5395C51.0994 18.4484 50.9376 17.3562 50.5623 16.3298C50.1871 15.3033 49.6063 14.3643 48.8556 13.5701C48.1049 12.7759 47.2 12.1433 46.1963 11.7109C45.1926 11.2785 44.1112 11.0555 43.0184 11.0555C41.9255 11.0555 40.8441 11.2785 39.8404 11.7109C38.8368 12.1433 37.9319 12.7759 37.1811 13.5701C36.4304 14.3643 35.8496 15.3033 35.4744 16.3298C35.0991 17.3562 34.9373 18.4484 34.9987 19.5395V23.0219C34.8814 20.3563 33.8696 17.808 32.1263 15.788C30.3831 13.7681 28.0102 12.3943 25.3904 11.8884C24.8452 11.7817 24.2931 11.7137 23.7382 11.6851H22.4164C19.3841 11.8542 16.5319 13.1791 14.4467 15.3872C12.3616 17.5953 11.202 20.5186 11.2068 23.5557C11.1814 23.8941 11.1814 24.234 11.2068 24.5724V38.146C11.3221 40.1949 12.2174 42.1219 13.7087 43.5316C15.2 44.9413 17.1743 45.7267 19.2264 45.7267C21.2785 45.7267 23.2528 44.9413 24.7441 43.5316C26.2354 42.1219 27.1306 40.1949 27.246 38.146V37.9935V34.6637C27.3588 37.3306 28.3691 39.8812 30.1131 41.9021C31.8571 43.9229 34.2326 45.2954 36.8543 45.7971C37.5985 45.9512 38.3566 46.0279 39.1166 46.0259C40.6776 46.0259 42.2233 45.718 43.6651 45.1198C45.107 44.5217 46.4167 43.6451 47.5193 42.5401C48.6219 41.4351 49.4958 40.1235 50.0909 38.6803C50.6859 37.2372 50.9905 35.6909 50.9871 34.1299C51.0173 33.9108 51.0343 33.6901 51.038 33.469Z" fill="white"/>
</svg>
