<svg width="39" height="13" viewBox="0 0 39 13" fill="none" xmlns="http://www.w3.org/2000/svg">
<path d="M10.3629 12.2822H7.98294L2.59394 4.13923V12.2822H0.213939V0.399226H2.59394L7.98294 8.55923V0.399226H10.3629V12.2822ZM26.6719 0.416226V12.2822H24.2919V4.56423L21.1129 12.2822H19.3109L16.1149 4.56423V12.2822H13.7349V0.416226H16.4379L20.2119 9.23923L23.9859 0.416226H26.6719ZM34.142 12.4012C33.3146 12.4012 32.5666 12.2596 31.898 11.9762C31.2406 11.6929 30.7193 11.2849 30.334 10.7522C29.9486 10.2196 29.7503 9.59056 29.739 8.86523H32.289C32.323 9.35256 32.493 9.73789 32.799 10.0212C33.1163 10.3046 33.547 10.4462 34.091 10.4462C34.6463 10.4462 35.0826 10.3159 35.4 10.0552C35.7173 9.78323 35.876 9.43189 35.876 9.00123C35.876 8.64989 35.7683 8.36089 35.553 8.13423C35.3376 7.90756 35.0656 7.73189 34.737 7.60723C34.4196 7.47123 33.9776 7.32389 33.411 7.16523C32.6403 6.93856 32.0113 6.71756 31.524 6.50223C31.048 6.27556 30.6343 5.94123 30.283 5.49923C29.943 5.04589 29.773 4.44523 29.773 3.69723C29.773 2.99456 29.9486 2.38256 30.3 1.86123C30.6513 1.33989 31.1443 0.943226 31.779 0.671226C32.4136 0.387893 33.139 0.246226 33.955 0.246226C35.179 0.246226 36.1706 0.54656 36.93 1.14723C37.7006 1.73656 38.1256 2.56389 38.205 3.62923H35.587C35.5643 3.22123 35.3886 2.88689 35.06 2.62623C34.7426 2.35423 34.3176 2.21823 33.785 2.21823C33.3203 2.21823 32.9463 2.33723 32.663 2.57523C32.391 2.81323 32.255 3.15889 32.255 3.61223C32.255 3.92956 32.357 4.19589 32.561 4.41123C32.7763 4.61523 33.037 4.78523 33.343 4.92123C33.6603 5.04589 34.1023 5.19323 34.669 5.36323C35.4396 5.58989 36.0686 5.81656 36.556 6.04323C37.0433 6.26989 37.4626 6.60989 37.814 7.06323C38.1653 7.51656 38.341 8.11156 38.341 8.84823C38.341 9.48289 38.1766 10.0722 37.848 10.6162C37.5193 11.1602 37.0376 11.5966 36.403 11.9252C35.7683 12.2426 35.0146 12.4012 34.142 12.4012Z" fill="#3BBCA0"/>
</svg>
