<svg width="24" height="24" viewBox="0 0 24 24" fill="none" xmlns="http://www.w3.org/2000/svg">
<mask id="mask0_462_1779" style="mask-type:alpha" maskUnits="userSpaceOnUse" x="0" y="0" width="24" height="24">
<rect width="24" height="24" fill="#A8A8A8"/>
</mask>
<g mask="url(#mask0_462_1779)">
<path d="M17.6154 18.6692L14.8576 15.9115C14.3576 16.3243 13.7826 16.6474 13.1327 16.8807C12.4827 17.114 11.8102 17.2307 11.1154 17.2307C9.40618 17.2307 7.95967 16.6389 6.7758 15.4554C5.59193 14.2718 5 12.8256 5 11.1169C5 9.40819 5.59178 7.96152 6.77535 6.7769C7.95892 5.5923 9.40507 5 11.1138 5C12.8225 5 14.2692 5.59193 15.4538 6.7758C16.6384 7.95967 17.2307 9.40618 17.2307 11.1154C17.2307 11.8295 17.1109 12.5115 16.8711 13.1615C16.6314 13.8115 16.3115 14.3769 15.9115 14.8577L18.6692 17.6154L17.6154 18.6692ZM11.1154 15.7308C12.4038 15.7308 13.4952 15.2836 14.3894 14.3894C15.2836 13.4952 15.7308 12.4038 15.7308 11.1154C15.7308 9.82688 15.2836 8.73553 14.3894 7.8413C13.4952 6.94707 12.4038 6.49995 11.1154 6.49995C9.82688 6.49995 8.73553 6.94707 7.8413 7.8413C6.94708 8.73553 6.49998 9.82688 6.49998 11.1154C6.49998 12.4038 6.94708 13.4952 7.8413 14.3894C8.73553 15.2836 9.82688 15.7308 11.1154 15.7308Z" fill="#A8A8A8"/>
</g>
</svg>
